<?xml version="1.0" encoding="UTF-8"?>
<svg id="Layer_2" data-name="Layer 2" xmlns="http://www.w3.org/2000/svg" viewBox="0 0 73.31 71.63">
  <g id="Layer_1-2" data-name="Layer 1">
    <path d="M4.02,68.54c0-.4,0-.68,0-.97,0-4-.09-8.01,.03-12.01,.17-5.65,2.07-10.64,6.22-14.61,2.81-2.68,6.15-4.17,10.08-4.21,2-.02,3.51-1.12,4.21-3.01-4.36-2.92-6.42-7.04-6.12-12.39-1.55,0-3.01,0-4.46,0-1.41,0-1.8-.39-1.8-1.82,0-.99-.01-1.99,0-2.98,.01-.87,.47-1.36,1.35-1.4,.62-.03,1.24,0,1.85,0C16.29,6.64,23.02,.71,30.93,.51c8.25-.22,15.59,6.15,16.28,14.63,.56,0,1.13-.02,1.7,0,1.01,.03,1.49,.5,1.51,1.51,.02,1.07,.02,2.15,0,3.22-.02,1-.53,1.47-1.53,1.48-1.49,.01-2.98,0-4.47,.02-.05,0-.1,.03-.13,.04-.12,1.27-.16,2.55-.39,3.79-.64,3.42-2.46,6.13-5.31,8.1-.54,.38-.57,.66-.26,1.19,.9,1.51,2.25,2.17,3.96,2.27,.96,.05,1.92,.16,2.87,.32,.74,.13,1.15,.76,1.05,1.42-.1,.68-.66,1.11-1.41,1.07-.43-.03-.86-.11-1.38-.18,0,.36,0,.65,0,.93,0,4.13,0,8.27,0,12.4,0,1.14-.9,1.87-1.76,1.36-.44-.27-.67-.88-1.12-1.51H21.78c-.03,.22-.04,.43-.1,.63-.19,.65-.6,1.03-1.31,1-.71-.03-1.12-.45-1.2-1.12-.08-.7-.06-1.41-.06-2.12,0-3.72,0-7.43,.01-11.15,0-.1-.02-.2-.06-.54-1.13,.35-2.21,.66-3.26,1.04-.14,.05-.2,.5-.2,.76-.01,2.9,0,5.81,0,8.71,0,5.89,0,11.77,0,17.66v1h3.53c0-.29,0-.57,0-.85,0-1.99,0-3.98,0-5.97,.01-2.3,1.38-3.67,3.66-3.67,5.68,0,11.35,0,17.03,0,2.25,0,3.59,1.35,3.6,3.62,0,2.22,0,4.45,.02,6.67,0,.05,.03,.09,.07,.2h3.51c0-.28,0-.58,0-.89,0-8.87,0-17.74,0-26.61,0-1.37,.35-1.72,1.7-1.73,1.44,0,2.87,0,4.32,0,.43-1.49,1.16-2.71,2.38-3.64,.23-.17,.25-.7,.26-1.06,.03-1.2,.31-2.28,1.33-3.03,1.05-.78,2.2-.93,3.38-.34,1.15,.57,1.72,1.55,1.84,2.81,.01,.13,.02,.26,0,.39-.1,.7,.2,1.14,.7,1.66,.73,.77,1.27,1.75,1.78,2.7,.19,.36,.33,.52,.73,.51,1.26-.02,2.51,0,3.77,0,1.35,0,1.72,.37,1.73,1.72,0,8.14,0,16.28,0,24.41,0,1.02,0,2.03,0,3.08,.29,.04,.52,.06,.75,.11,.75,.14,1.19,.67,1.14,1.36-.05,.68-.55,1.17-1.31,1.2-.81,.03-1.62,.02-2.43,.02-17.73,0-35.47,0-53.2-.01-4.55,0-9.1,0-13.65,0-.36,0-.75-.04-1.06-.19-.53-.25-.72-.73-.63-1.31,.11-.67,.56-1.01,1.18-1.06,.73-.05,1.46-.01,2.31-.01Zm64.32-26.77c-.99,0-1.91,.03-2.82-.01-.49-.02-.7,.12-.87,.62-1.3,3.83-5.78,5.34-9.08,3.08-1.3-.89-2.1-2.14-2.48-3.64h-3.49v26.61h18.75v-26.65Zm-32.69-6.91c-2.92,1.05-5.83,1.02-8.73,0-1.01,2.35-2.76,3.76-5.14,4.32v10.71h19.06v-10.69c-2.68-.77-3.92-1.8-5.19-4.34ZM23.96,5.42c-.13,.02-.18,0-.22,.03-.09,.05-.18,.1-.27,.16-3.47,2.64-5.38,6.11-5.5,10.5-.03,1.12-.52,1.63-1.62,1.62-.52,0-1.03,0-1.57,0v.98H47.79v-.98c-.52,0-1.01,0-1.5,0-1.18,.01-1.59-.39-1.64-1.56-.15-3.69-1.51-6.85-4.17-9.42-.53-.51-1.14-.95-1.88-1.55,0,1.54-.01,2.83,0,4.13,0,.66-.22,1.14-.77,1.53-1.21,.87-2.39,1.78-3.59,2.66-1.98,1.44-3.97,1.44-5.92,0-1.18-.87-2.33-1.77-3.53-2.61-.59-.42-.85-.93-.84-1.65,.03-1.27,0-2.54,0-3.82Zm17.6,15.98H20.97c-.22,4.26,1.18,7.75,4.83,10.01,3.55,2.21,7.31,2.23,10.88,.06,3.69-2.25,5.16-5.73,4.89-10.07Zm-19.84,47.02h19.16c0-2.2,0-4.34,0-6.48,0-1.28-.11-1.4-1.38-1.4-5.49,0-10.97,0-16.46,0-.21,0-.47-.06-.62,.03-.27,.18-.67,.45-.68,.69-.05,2.37-.03,4.74-.03,7.16Zm-8.77-26.43c-.35,.28-.57,.45-.78,.64-3.41,3.22-5.24,7.25-5.47,11.87-.22,4.46-.09,8.94-.12,13.41,0,.18,.04,.35,.07,.55h6.3v-26.47ZM32.57,3.05c0,.98,0,1.81,0,2.64,0,.91-.48,1.49-1.23,1.52-.78,.03-1.29-.55-1.31-1.51-.01-.83,0-1.66,0-2.66-1.12,.28-2.13,.5-3.12,.8-.16,.05-.32,.39-.33,.6-.03,1.38-.03,2.77,0,4.16,0,.22,.15,.51,.32,.64,1.03,.8,2.07,1.59,3.14,2.34,.82,.58,1.73,.57,2.55-.02,1.04-.74,2.07-1.51,3.08-2.3,.19-.15,.35-.46,.36-.7,.03-1.38,.03-2.77,0-4.16,0-.2-.19-.52-.35-.57-.99-.29-2-.52-3.1-.79Zm29.83,37.32c-.05-1.13-.6-2.22-1.84-2.88-.7-.37-1.03-.91-.98-1.7,.03-.55,.07-1.11-.02-1.64-.04-.26-.36-.47-.56-.7-.23,.23-.57,.43-.66,.7-.11,.38-.07,.83-.02,1.24,.13,1.06-.24,1.74-1.22,2.27-1.41,.78-1.93,2.62-1.33,4.1,.6,1.5,2.19,2.41,3.7,2.13,1.7-.31,2.9-1.66,2.93-3.53Z" style="fill: #226281; stroke: #226281; stroke-miterlimit: 10;"/>
    <path d="M54.55,48.85c.68,0,1.36-.01,2.04,0,.86,.02,1.38,.51,1.39,1.36,.03,1.36,.03,2.72,0,4.07-.02,.84-.47,1.33-1.31,1.35-1.38,.04-2.77,.04-4.15,0-.85-.02-1.32-.47-1.35-1.31-.04-1.38-.04-2.77,0-4.15,.03-.87,.54-1.31,1.42-1.33,.65-.01,1.3,0,1.96,0Zm.77,4.24c.22-1.75,.07-1.9-1.54-1.59v1.56c.16,.01,.28,.03,.4,.03,.36,0,.72,0,1.13,0Z" style="fill: #a4883f; stroke: #a4883d; stroke-miterlimit: 10; stroke-width: .5px;"/>
    <path d="M54.61,65.16c-.68,0-1.36,.01-2.04,0-.84-.02-1.37-.44-1.4-1.27-.05-1.41-.05-2.82,0-4.23,.02-.81,.48-1.26,1.29-1.29,1.41-.04,2.82-.04,4.23,0,.83,.03,1.28,.52,1.29,1.37,.02,1.33,.02,2.66,0,3.99-.01,.91-.52,1.4-1.41,1.42-.65,.01-1.3,0-1.96,0Zm-.82-2.65c1.7,.22,1.78,.28,1.48-1.55h-1.48v1.55Z" style="fill: #a4883f; stroke: #a4883d; stroke-miterlimit: 10; stroke-width: .5px;"/>
    <path d="M63.04,57.99c.73,0,1.46-.02,2.19,0,.91,.03,1.44,.53,1.43,1.31-.01,.74-.53,1.26-1.39,1.27-1.46,.03-2.92,.02-4.38,0-.87-.01-1.46-.58-1.45-1.32,.01-.74,.61-1.25,1.49-1.27,.7-.02,1.41,0,2.11,0Z" style="fill: #a4883f; stroke: #a4883d; stroke-miterlimit: 10; stroke-width: .5px;"/>
    <path d="M63.09,51.03c-.73,0-1.46,0-2.19,0-.89-.01-1.47-.52-1.47-1.28,0-.73,.55-1.24,1.4-1.25,1.49-.02,2.97-.02,4.46,0,.87,.01,1.37,.5,1.37,1.26,0,.76-.52,1.25-1.38,1.26-.73,.01-1.46,0-2.19,0Z" style="fill: #a4883f; stroke: #a4883d; stroke-miterlimit: 10; stroke-width: .5px;"/>
    <path d="M63.08,54.99c-.78,0-1.57,.02-2.35,0-.79-.03-1.31-.56-1.3-1.27,0-.7,.56-1.24,1.33-1.25,1.54-.02,3.08-.02,4.62,0,.79,.01,1.28,.54,1.28,1.28,0,.73-.5,1.2-1.31,1.25-.05,0-.1,0-.16,0-.7,0-1.41,0-2.11,0h0Z" style="fill: #a4883f; stroke: #a4883d; stroke-miterlimit: 10; stroke-width: .5px;"/>
  </g>
</svg>