<?xml version="1.0" encoding="UTF-8"?>
<svg id="Layer_2" data-name="Layer 2" xmlns="http://www.w3.org/2000/svg" viewBox="0 0 72.71 77.5">
  <g id="Layer_1-2" data-name="Layer 1">
    <path d="M3.37,29.11v45c.34,0,.63,0,.93,0,19.31,0,38.61-.04,57.92,.04,4,.02,7.22-2.95,7.2-7.25-.07-13.05-.03-26.1-.03-39.16v-1c-.32,.24-.55,.4-.78,.57-1.6,1.18-3.39,1.8-5.39,1.8-6.06,0-12.11,0-18.17,0-1.1,0-1.7-.47-1.73-1.35-.03-.8,.46-1.38,1.26-1.46,.3-.03,.61-.02,.91-.02,5.67,0,11.34,0,17.01,0,1.94,0,3.73-.44,5.11-1.93,1.64-1.79,2.21-3.88,1.43-6.2-.79-2.35-2.54-3.69-4.95-4.14-.59-.11-1.21-.13-1.82-.14-3.18-.01-6.36,0-9.54,0h-1.02c0,.85,0,1.61,0,2.37,0,1.19,.02,2.38,0,3.57-.02,1.09-.54,1.67-1.43,1.67-.87,0-1.44-.62-1.44-1.66-.01-2.38-.02-4.76,0-7.13,0-1.09,.57-1.64,1.64-1.64,4.26,0,8.52-.06,12.78,.02,3.72,.07,7.7,2.36,8.92,7.52,.06,.26,.03,.55,.03,.83,0,15.93,0,31.86,0,47.78,0,5.63-4.07,9.78-9.7,9.79-20.05,.03-40.1,.01-60.16,0-1.39,0-1.84-.46-1.84-1.85,0-15.68,0-31.36,0-47.04,0-1.39,.43-1.83,1.83-1.83,4.09,0,8.19,0,12.28,0,.98,0,1.62,.56,1.63,1.38,.02,.84-.66,1.43-1.67,1.44-.17,0-.33,0-.5,0-3.26,0-6.53,0-9.79,0h-.92Z" style="fill: #a4883f; stroke: #a4883d; stroke-miterlimit: 10;"/>
    <g>
      <path d="M41.05,55.8c-.75,0-1.33-.5-1.64-1.42l-9.63-28.51c-.04-.12-.09-.25-.14-.39l-1.34,3.93c-1.13,3.3-2.24,6.56-3.34,9.82-1.71,5.07-3.4,10.14-5.09,15.21-.3,.89-.83,1.33-1.64,1.35h0c-.83,0-1.4-.43-1.6-1.17-.11-.41-.02-.86,.04-1.09,.11-.38,.23-.76,.35-1.14,.17-.51,.33-1.02,.45-1.54,.06-.24-.02-.62-.16-.81-2.65-3.58-3.32-7.47-1.98-11.58,1.45-4.47,2.93-8.92,4.41-13.38,.95-2.87,1.9-5.73,2.85-8.6,.14-.41,.21-.89,.21-1.38,0-1.45,.45-2.79,1.35-4.08,.19-.27,.32-.66,.33-.99,.02-.89,.02-1.77,.02-2.66,0-.63,0-1.27,0-1.9,.04-2.92,2.28-5.2,5.11-5.2,2.96,.05,5.13,2.3,5.15,5.23v.49c0,.7,.01,1.39,0,2.09-.04,1.42,0,2.69,.88,3.9,.43,.59,.55,1.38,.67,2.14,.05,.29,.09,.58,.15,.86,.06,.26,.09,.53,.13,.79,.05,.37,.1,.71,.2,1.04,1.41,4.29,2.84,8.57,4.26,12.85l2.77,8.34c1.46,4.4,.83,8.46-1.88,12.07-.13,.17-.18,.55-.12,.83,.13,.55,.31,1.11,.48,1.65,.09,.29,.19,.58,.27,.87,.18,.61,.15,1.17-.09,1.6-.2,.36-.52,.61-.94,.73-.18,.05-.35,.08-.52,.08Zm-.73-9.44c.11-.22,.2-.4,.27-.59,.86-2.13,.89-4.29,.11-6.62-.71-2.12-1.41-4.24-2.12-6.36l-1.19-3.59-3.01-9.02-2.48,1.54,8.41,24.65ZM23.6,24.11c-1.15,3.46-2.31,6.94-3.44,10.42l-.21,.64c-.67,2.05-1.36,4.17-1.83,6.3-.33,1.48-.05,3.05,.86,4.89l8.41-24.65-2.5-1.52-1.3,3.92Zm6.05-12.48c-1.88,0-3.48,1.57-3.5,3.41-.01,.93,.35,1.82,1.03,2.5,.67,.68,1.55,1.05,2.48,1.05s1.79-.36,2.45-1.03c.67-.68,1.04-1.58,1.03-2.54-.01-1.84-1.61-3.4-3.48-3.4v0Zm1.8-3.26v-2.65c0-.12,0-.25-.01-.37-.1-.95-.75-1.64-1.6-1.71-.05,0-.11,0-.17,0-.75,0-1.58,.4-1.66,1.15-.09,.89-.07,1.81-.05,2.7,0,.3,.01,.59,.02,.88h3.47Z" style="fill: #216281;"/>
      <path d="M29.62,.5s.06,0,.09,0c2.73,.05,4.8,2.19,4.82,4.98,0,.86,.02,1.71,0,2.57-.04,1.43,0,2.77,.93,4.06,.55,.76,.56,1.92,.79,2.9,.14,.61,.14,1.26,.34,1.85,2.33,7.07,4.69,14.13,7.03,21.19,1.41,4.26,.88,8.21-1.84,11.84-.19,.25-.24,.72-.16,1.04,.2,.86,.51,1.69,.76,2.53,.3,1-.04,1.79-.86,2.02-.16,.04-.31,.07-.45,.07-.63,0-1.12-.43-1.4-1.25-3.21-9.5-6.42-19.01-9.63-28.51-.1-.29-.21-.56-.39-1.04-1.67,4.9-3.3,9.64-4.91,14.4-1.71,5.07-3.4,10.14-5.09,15.21-.23,.7-.63,1.16-1.41,1.18-.01,0-.02,0-.03,0-.67,0-1.15-.35-1.33-.99-.08-.3-.04-.66,.04-.96,.25-.9,.59-1.78,.81-2.69,.07-.31-.01-.76-.2-1.02-2.57-3.46-3.28-7.26-1.95-11.36,2.39-7.34,4.85-14.65,7.26-21.98,.15-.46,.22-.97,.22-1.45,0-1.46,.48-2.75,1.31-3.94,.22-.31,.36-.74,.37-1.12,.04-1.52,0-3.04,.02-4.56,.03-2.77,2.19-4.96,4.86-4.96m-1.89,8.11h3.97c0-.92,0-1.86,0-2.8,0-.17,0-.33-.01-.5-.12-1.08-.85-1.85-1.83-1.93-.06,0-.12,0-.18,0-.92,0-1.82,.53-1.91,1.38-.13,1.29-.03,2.61-.03,3.85m1.92,10.23h0c2.07,0,3.74-1.71,3.73-3.82-.01-1.98-1.72-3.64-3.73-3.64h0c-2,0-3.73,1.68-3.75,3.66-.02,2.06,1.7,3.81,3.76,3.81m10.63,28.19c.25-.52,.41-.83,.54-1.15,.91-2.25,.89-4.51,.12-6.79-1.12-3.31-2.2-6.64-3.3-9.95-1.04-3.13-2.09-6.26-3.11-9.32-.97,.6-1.92,1.19-2.92,1.81,2.85,8.37,5.73,16.78,8.67,25.42m-21.25-.03c2.93-8.59,5.81-17.02,8.66-25.39-1-.61-1.93-1.18-2.93-1.79-1.61,4.86-3.25,9.74-4.84,14.64-.75,2.3-1.52,4.61-2.04,6.96-.42,1.9,.15,3.74,1.16,5.58M29.62,0c-2.97,0-5.32,2.39-5.36,5.45,0,.64,0,1.27,0,1.91,0,.87,0,1.77-.02,2.64,0,.28-.12,.61-.28,.85-.93,1.34-1.39,2.72-1.4,4.22,0,.46-.07,.91-.2,1.3-.95,2.88-1.91,5.76-2.86,8.64-1.45,4.37-2.95,8.89-4.4,13.34-1.36,4.19-.68,8.16,2.02,11.81,.1,.14,.16,.43,.12,.6-.12,.51-.28,1-.45,1.52-.12,.38-.25,.77-.36,1.15-.07,.26-.17,.76-.04,1.23,.24,.86,.9,1.36,1.81,1.36,.95-.02,1.58-.53,1.91-1.52,1.51-4.55,3.3-9.92,5.09-15.21,1.12-3.32,2.26-6.64,3.41-10.01l1.04-3.05c3.18,9.41,6.35,18.81,9.53,28.22,.47,1.38,1.37,1.59,1.87,1.59,.19,0,.39-.03,.59-.09,.48-.14,.86-.43,1.09-.85,.27-.5,.31-1.12,.11-1.8-.09-.29-.18-.58-.27-.87-.18-.56-.35-1.09-.48-1.63-.05-.22,0-.53,.08-.63,2.76-3.67,3.4-7.81,1.91-12.29-.9-2.71-1.8-5.43-2.7-8.14-1.45-4.35-2.89-8.7-4.33-13.06-.1-.3-.15-.64-.19-.99-.04-.26-.07-.54-.13-.81-.06-.27-.11-.55-.15-.84-.12-.79-.25-1.61-.72-2.25-.83-1.15-.87-2.33-.84-3.75,.02-.71,.01-1.42,0-2.11v-.48C35,2.41,32.72,.05,29.71,0h-.09Zm-1.39,8.11c0-.21,0-.42-.01-.63-.02-.88-.04-1.79,.05-2.67,.06-.58,.76-.93,1.41-.93,.05,0,.1,0,.15,0,.74,.06,1.28,.64,1.37,1.48,.01,.12,.01,.24,.01,.37v2.19s0,.19,0,.19h-2.97Zm1.43,10.73v-.5c-.86,0-1.68-.35-2.3-.98-.63-.63-.96-1.46-.95-2.32,.02-1.71,1.51-3.16,3.25-3.16,1.75,0,3.23,1.44,3.24,3.15,0,.9-.33,1.73-.96,2.36-.61,.61-1.41,.95-2.27,.95v.5h0Zm2.56,2.99l1-.62,1.05-.65,.75,2.25c.71,2.14,1.44,4.31,2.16,6.48,.39,1.18,.78,2.35,1.17,3.53,.71,2.14,1.42,4.29,2.14,6.42,.76,2.27,.73,4.37-.11,6.44h0s-4.76-13.94-4.76-13.94l-3.38-9.92h0Zm-13.26,23.87c-.68-1.55-.86-2.9-.58-4.17,.47-2.12,1.16-4.24,1.83-6.29l.2-.62c1.13-3.48,2.31-7.01,3.44-10.43,.4-1.21,.8-2.41,1.2-3.61l2.06,1.25-4.89,14.32-3.26,9.55h0Z" style="fill: #226281;"/>
    </g>
    <g>
      <path d="M29.39,66.64c-5.73-.04-11.09-1.75-15.92-5.09-1.07-.74-1.38-1.71-.86-2.68,.34-.63,.92-.99,1.59-.99,.46,0,.94,.17,1.4,.48,2.24,1.54,4.44,2.62,6.74,3.31,2.54,.76,5.06,1.14,7.49,1.14,4.69,0,9.24-1.43,13.54-4.24,.71-.47,1.29-.69,1.79-.69,.57,0,1.04,.27,1.42,.81,.31,.45,.42,.91,.34,1.36-.11,.59-.56,1.15-1.37,1.69-4.87,3.28-10.15,4.88-16.16,4.9h0Z" style="fill: #216281;"/>
      <path d="M14.21,58.37c.35,0,.73,.13,1.11,.39,2.13,1.47,4.4,2.64,6.88,3.38,2.6,.77,5.14,1.16,7.63,1.16,4.82,0,9.42-1.45,13.81-4.32,.61-.4,1.11-.6,1.52-.6,.41,0,.73,.2,1.01,.59,.56,.81,.28,1.56-.9,2.36-4.73,3.19-9.95,4.8-15.88,4.81-5.59-.04-10.87-1.71-15.64-5-.86-.59-1.09-1.3-.7-2.04,.26-.48,.67-.73,1.15-.73m0-1c-.86,0-1.61,.46-2.04,1.26-.5,.93-.5,2.29,1.01,3.33,4.92,3.4,10.37,5.14,16.2,5.18,6.11-.01,11.49-1.64,16.44-4.98,.93-.63,1.45-1.29,1.59-2.02,.11-.59-.03-1.17-.42-1.74-.59-.85-1.32-1.02-1.83-1.02-.61,0-1.27,.24-2.07,.77-4.21,2.76-8.68,4.16-13.27,4.16-2.38,0-4.85-.38-7.35-1.12-2.25-.67-4.4-1.73-6.6-3.24-.54-.37-1.12-.57-1.68-.57h0Z" style="fill: #226281;"/>
    </g>
    <g>
      <path d="M52.76,61.43c-1.28-.07-2.15-.89-2.11-2.01,.04-1.1,.9-1.86,2.14-1.87,.66,0,1.32,0,1.99,0h5.81c.66,0,1.32,0,1.98,0,1.29,.01,2.16,.79,2.16,1.94,0,1.13-.85,1.89-2.15,1.95h-9.6c-.07,0-.14,0-.21,0Z" style="fill: #216281;"/>
      <path d="M60.58,58.04c.66,0,1.31,0,1.97,0,1.04,.01,1.67,.57,1.67,1.44,0,.86-.63,1.4-1.67,1.45-.06,0-.11,0-.17,0-.08,0-.16,0-.24,0-1.23,0-2.47,0-3.7,0-1.75,0-3.49,0-5.24,0-.08,0-.16,0-.24,0-.06,0-.12,0-.17,0-1.01-.05-1.67-.66-1.64-1.49,.03-.82,.66-1.38,1.64-1.39,.67,0,1.33-.01,2-.01,.95,0,1.9,0,2.85,0h.04c.97,0,1.94,0,2.91,0m0-1h-1.48s-1.43,0-1.43,0h-1.46s-1.42,0-1.42,0c-.67,0-1.34,0-2.01,.01-1.5,.02-2.58,.99-2.63,2.35-.05,1.38,1.04,2.45,2.59,2.53,.07,0,.15,0,.23,0h.13s.11,0,.11,0h5.24s3.7,0,3.7,0h.11s.13,0,.13,0c.07,0,.14,0,.21,0,1.57-.06,2.63-1.05,2.63-2.44,0-1.44-1.06-2.42-2.66-2.44-.66,0-1.32,0-1.98,0h0Z" style="fill: #226281;"/>
    </g>
    <g>
      <path d="M57.73,69.2c-1.71,0-3.42,0-5.14-.02-1.1,0-1.93-.82-1.94-1.9-.01-1.11,.86-1.94,2.08-1.96,.68-.01,1.36-.01,2.05-.01h2.92s2.93,0,2.93,0c.65,0,1.31,0,1.96,0,.68,0,1.27,.25,1.66,.67,.34,.38,.51,.88,.47,1.41-.08,1.03-.88,1.76-1.94,1.77-1.68,.01-3.37,.02-5.05,.02Z" style="fill: #216281;"/>
      <path d="M54.78,65.81c.95,0,1.89,0,2.84,0h.08c.97,0,1.95,0,2.92,0,.65,0,1.31,0,1.96,.01,1.04,.01,1.71,.66,1.64,1.55-.06,.74-.6,1.3-1.45,1.31-1.68,.01-3.35,.02-5.03,.02s-3.43,0-5.15-.02c-.87,0-1.44-.64-1.45-1.4,0-.81,.63-1.44,1.58-1.45,.68-.01,1.36-.01,2.04-.01m0-1c-.69,0-1.37,0-2.06,.01-1.48,.02-2.58,1.08-2.57,2.46,.01,1.35,1.06,2.38,2.44,2.39,1.72,.02,3.44,.02,5.15,.02s3.36,0,5.04-.02c1.33-.01,2.34-.93,2.44-2.23,.05-.67-.16-1.31-.6-1.79-.48-.53-1.2-.83-2.03-.84-.66,0-1.31-.01-1.97-.01h-1.52s-1.4,0-1.4,0h-1.5s-1.42,0-1.42,0h0Z" style="fill: #226281;"/>
    </g>
    <g>
      <path d="M54.82,53.65c-.71,0-1.42,0-2.13,0-1.02,0-1.72-.51-1.88-1.34-.12-.62,.03-1.37,.36-1.81,.35-.47,1.09-.7,1.63-.7,1.77-.02,3.54-.03,5.3-.03,1.49,0,2.98,0,4.47,.01,.69,0,1.25,.21,1.64,.61,.34,.35,.52,.81,.51,1.34-.01,1.14-.88,1.91-2.18,1.92-.66,0-1.32,0-1.98,0h-5.75Z" style="fill: #216281;"/>
      <path d="M58.09,50.26c1.49,0,2.98,0,4.47,.01,1.05,0,1.67,.58,1.66,1.44,0,.86-.65,1.42-1.68,1.43-.65,0-1.3,0-1.95,0-.98,0-1.96,0-2.93,0-.06,0-.11,0-.17,0-.88,0-1.76,0-2.64,0-.72,0-1.44,0-2.16,0-.66,0-1.27-.26-1.4-.93-.09-.45,0-1.07,.27-1.42,.23-.31,.81-.49,1.23-.5,1.76-.02,3.53-.03,5.29-.03m0-1c-1.77,0-3.53,0-5.3,.03-.68,0-1.57,.29-2.02,.9-.48,.65-.57,1.57-.44,2.21,.21,1.06,1.11,1.73,2.37,1.74,.72,0,1.45,0,2.17,0h1.32s1.32,0,1.32,0h1.54s1.56,0,1.56,0c.65,0,1.31,0,1.96,0,1.56-.01,2.66-1.01,2.67-2.42,0-.67-.22-1.25-.66-1.7-.48-.49-1.17-.75-2-.76-1.49,0-2.99-.01-4.48-.01h0Z" style="fill: #226281;"/>
    </g>
    <g>
      <path d="M52.95,45.86c-1.37,0-2.27-.75-2.3-1.9-.01-.51,.15-.96,.48-1.3,.41-.42,1.05-.65,1.85-.65h7.58c.65,0,1.31,0,1.96,0,1.34,0,2.18,.73,2.2,1.87,0,.53-.17,1-.51,1.34-.4,.41-1,.62-1.72,.63-1.59,0-3.18,0-4.77,0h-4.77Z" style="fill: #216281;"/>
      <path d="M60.58,42.51c.65,0,1.29,0,1.94,0,1.08,0,1.69,.51,1.7,1.38,.01,.89-.64,1.46-1.73,1.46-1.57,0-3.13,0-4.7,0s-3.23,0-4.84,0c-1.09,0-1.78-.55-1.8-1.41-.02-.89,.65-1.43,1.83-1.44,.62,0,1.25,0,1.87,0,.95,0,1.9,0,2.86,0h.02c.95,0,1.9,0,2.85,0m0-1h-1.43s-1.42,0-1.42,0h-1.43s-1.44,0-1.44,0c-.63,0-1.25,0-1.88,0-1.18,0-1.85,.44-2.2,.8-.42,.44-.64,1.01-.62,1.66,.04,1.42,1.16,2.38,2.8,2.38,1.61,0,3.23,0,4.84,0s3.14,0,4.7,0c.86,0,1.58-.27,2.08-.78,.44-.45,.66-1.03,.65-1.7-.02-1.43-1.08-2.36-2.7-2.37-.65,0-1.3,0-1.95,0h0Z" style="fill: #226281;"/>
    </g>
    <g>
      <path d="M52.86,38.07c-1.3,0-2.19-.76-2.22-1.88-.01-.51,.16-.97,.5-1.32,.39-.4,.98-.63,1.66-.63,1.6,0,3.19,0,4.79,0s3.34,0,5,0c1.27,0,2.1,.74,2.12,1.87,0,.53-.17,.99-.51,1.34-.39,.4-.96,.61-1.64,.62-.68,0-1.36,0-2.04,0h-7.67Z" style="fill: #216281;"/>
      <path d="M57.71,34.72c1.63,0,3.26,0,4.9,0,1.01,0,1.61,.53,1.62,1.38,.01,.87-.63,1.45-1.65,1.45-.66,0-1.33,0-1.99,0-.97,0-1.94,0-2.91,0s-1.91,0-2.86,0c-.65,0-1.3,0-1.95,0-1.02,0-1.7-.56-1.72-1.4-.02-.84,.63-1.43,1.67-1.44,1.63,0,3.26,0,4.89,0m0-1c-1.63,0-3.27,0-4.9,0-.82,0-1.53,.28-2.02,.78-.43,.44-.66,1.04-.64,1.68,.03,1.39,1.15,2.37,2.71,2.37,.65,0,1.3,0,1.95,0h1.43s1.43,0,1.43,0h1.45s1.45,0,1.45,0c.67,0,1.33,0,1.99,0,.8,0,1.51-.28,1.99-.77,.43-.44,.66-1.05,.65-1.7-.02-1.41-1.08-2.36-2.62-2.36-1.63,0-3.27,0-4.9,0h0Z" style="fill: #226281;"/>
    </g>
  </g>
</svg>