<?xml version="1.0" encoding="UTF-8"?>
<svg id="Layer_2" data-name="Layer 2" xmlns="http://www.w3.org/2000/svg" viewBox="0 0 75.49 75.49">
  <g id="Layer_1-2" data-name="Layer 1">
    <path d="M74.99,14.17c-.34,1.55-.67,3.11-1.03,4.66-.24,1.01-.5,2.02-.78,3.02-.22,.78-.76,1.15-1.36,.99-.69-.18-.98-.78-.75-1.61,.68-2.45,1.25-4.92,1.67-7.42,.19-1.16-.42-2.02-1.59-2.12-4.82-.42-9.43-1.6-13.72-3.9-2.28-1.22-4.36-2.69-6.26-4.45-.92-.85-1.73-.86-2.62-.03-4.23,3.94-9.3,6.2-14.85,7.51-1.77,.42-3.57,.62-5.37,.87-.97,.13-1.57,.98-1.43,1.94,1.16,7.57,3.52,14.71,7.67,21.19,3.31,5.18,7.53,9.4,13.09,12.17,.41,.2,.84,.38,1.25,.58,.65,.33,1.29,.29,1.95,0,5.45-2.41,9.72-6.2,13.12-11.04,2.21-3.15,3.93-6.55,5.34-10.12,.1-.25,.19-.5,.29-.74,.31-.73,.87-1.03,1.47-.78,.62,.25,.84,.84,.57,1.57-.7,1.91-1.52,3.77-2.43,5.58-2.38,4.72-5.41,8.95-9.41,12.44-.03,.03-.05,.08-.12,.2,1.34,.65,2.65,1.35,4.02,1.92,1.55,.65,2.15,1.74,2.13,3.41-.08,7.32-.13,14.64-.1,21.96,0,1.93-1.34,3.03-3.07,3.03-19.71-.04-39.41-.04-59.12,0-1.83,0-3.06-1.26-3.05-3.05,.06-9.6,.03-19.2,.03-28.8,0-.15,0-.29,0-.44,.03-.73,.45-1.19,1.09-1.19,.64,0,1.08,.46,1.09,1.19,.01,2.16,0,4.31,0,6.47,0,1.13-.17,1.02,.99,1.02,3.47,0,6.93,0,10.4,0,.24,0,.49,0,.73,.02,.62,.07,.97,.42,.99,1.04,.02,.64-.34,.99-.92,1.12-.21,.05-.43,.02-.65,.02-3.59,0-7.18,.02-10.76-.02-.67,0-.81,.2-.78,.81,.05,1.04,.05,2.09,0,3.13-.03,.6,.13,.77,.75,.77,3.68-.03,7.37,0,11.05-.02,.62,0,1.11,.17,1.29,.81,.21,.78-.32,1.37-1.22,1.37-3.59,0-7.18,0-10.76,0q-1.09,0-1.09,1.12c0,.92,.04,1.84-.01,2.76-.03,.62,.11,.82,.78,.81,3.64-.04,7.27-.02,10.91-.02,.45,0,.87,.05,1.19,.41,.52,.6,.23,1.55-.54,1.74-.3,.07-.63,.07-.94,.07-3.51,0-7.03,.03-10.54-.02-.73,0-.88,.21-.86,.89,.05,1.65,.03,3.3,0,4.94,0,.59,.2,.82,.81,.82,5.7-.01,11.39-.01,17.09,0,.44,0,.55-.1,.55-.56-.02-11-.02-22.01,0-33.01,0-.54-.16-.81-.65-1.04-5.57-2.65-11.12-5.33-16.68-8-.96-.46-1.11-.37-1.11,.73,0,2.16,0,4.31,0,6.47,0,.96-.4,1.49-1.11,1.48-.68-.01-1.07-.53-1.07-1.44,0-2.3,0-4.61,0-6.91,0-2.19,1.94-3.41,3.93-2.46,5.3,2.54,10.59,5.09,15.89,7.64q.79,.38,.79-.49c0-1.55-.01-3.1,0-4.65,.03-2.27,1.92-3.45,3.97-2.48,1.4,.66,2.78,1.34,4.19,2.01,.15-.3-.06-.5-.15-.69-2.22-4.93-3.61-10.1-4.44-15.42-.37-2.39,1.42-4.32,4.03-4.58,5.96-.59,11.48-2.43,16.34-6.02,.41-.3,.82-.61,1.18-.96,.8-.78,1.64-1.48,2.7-1.88h1.75c.7,.35,1.42,.67,2.01,1.23,4.43,4.12,9.73,6.4,15.65,7.36,.86,.14,1.73,.25,2.59,.31,2.08,.14,3.39,1.22,4.03,3.17v1.6Zm-31.53,58.62c6.37,0,12.75,0,19.12,0,.53,0,.94,0,.94-.74,.02-7.46,.06-14.93,.11-22.39,0-.48-.18-.74-.61-.94-1.56-.72-3.1-1.47-4.64-2.23-.48-.24-.82-.27-1.29,.08-1.74,1.27-3.64,2.3-5.63,3.14-1.08,.46-2.16,.44-3.24-.03-2.07-.9-4.03-1.99-5.87-3.31-4.51-3.23-7.98-7.38-10.73-12.17-.31-.55-.7-.92-1.28-1.19-2.02-.93-4.02-1.91-6.02-2.87-.84-.4-.97-.32-.97,.59,0,6.25,0,12.5-.01,18.76,0,.56,.13,.74,.72,.74,2.91-.03,5.82-.01,8.72-.01,.7,0,1.41,0,2.11,.02,.46,.01,.78,.27,.93,.69,.14,.41,.08,.81-.24,1.14-.32,.32-.72,.35-1.14,.35-3.44,0-6.88,.01-10.32-.02-.58,0-.81,.11-.78,.74,.06,1.06,.05,2.13,0,3.2-.03,.6,.14,.77,.75,.76,3.37-.03,6.74-.02,10.11-.02,.17,0,.34,0,.51,0,.73,.03,1.18,.44,1.17,1.1,0,.66-.44,1.07-1.19,1.07-3.51,0-7.03,.02-10.54-.01-.6,0-.86,.09-.82,.77,.07,1.06,.05,2.13,0,3.2-.02,.56,.12,.74,.71,.73,3.42-.03,6.83-.02,10.25-.01,.24,0,.49-.02,.72,.04,.55,.15,.88,.5,.85,1.1-.02,.59-.35,.94-.92,1.03-.26,.04-.53,.04-.8,.04-3.27,0-6.54,0-9.81,0-1.15,0-.98-.09-.99,.95,0,1.5,0,3,0,4.51q0,1.17,1.14,1.17c6.32,0,12.65,0,18.97,0Z" style="fill: #226281; stroke: #226281; stroke-miterlimit: 10;"/>
    <path d="M68.59,17.19c-.1,.87-.44,1.91-.74,2.95-1.75,6-4.22,11.64-8.22,16.51-2.33,2.84-5.08,5.18-8.32,6.93-.99,.53-1.89,.52-2.88-.02-5.09-2.77-8.83-6.88-11.76-11.79-2.62-4.4-4.39-9.14-5.57-14.11-.41-1.74,.47-2.97,2.3-3.34,4.89-.98,9.46-2.73,13.63-5.5,.34-.23,.68-.47,1.01-.71,1.33-.95,2.31-.95,3.64,.04,3.02,2.24,6.33,3.92,9.9,5.08,1.61,.52,3.25,.92,4.92,1.24,1.28,.25,2.1,1.24,2.1,2.71Zm-18.64-7.53c-.29-.02-.43,.12-.59,.24-4.67,3.37-9.88,5.45-15.5,6.59-.56,.11-.71,.33-.58,.89,1.12,4.61,2.76,9.01,5.17,13.11,2.7,4.58,6.13,8.46,10.86,11.07,.41,.23,.7,.24,1.12,0,3.53-1.94,6.37-4.64,8.71-7.88,3.48-4.82,5.59-10.25,7.08-15.95q.27-1.01-.75-1.21c-5.52-1.07-10.57-3.22-15.1-6.57-.15-.11-.32-.21-.42-.28Z" style="fill: #a4883f; stroke: #a4883d; stroke-miterlimit: 10;"/>
    <path d="M56.9,20.71c-.02,.37-.18,.66-.43,.91-2.67,2.68-5.32,5.36-8.01,8.03-.89,.88-1.86,.86-2.75,0-.87-.84-1.72-1.71-2.57-2.57-.56-.57-.59-1.19-.12-1.66,.47-.47,1.09-.44,1.66,.11,.66,.64,1.33,1.28,1.94,1.96,.35,.39,.55,.35,.9-.01,2.43-2.47,4.89-4.91,7.33-7.37,.36-.36,.74-.53,1.24-.4,.41,.11,.65,.4,.75,.81,.02,.07,.03,.14,.04,.2Z" style="fill: #a4883f; stroke: #a4883d; stroke-miterlimit: 10;"/>
  </g>
</svg>