<?xml version="1.0" encoding="UTF-8"?>
<svg id="Layer_2" data-name="Layer 2" xmlns="http://www.w3.org/2000/svg" viewBox="0 0 59.51 84.75">
  <g id="Layer_1-2" data-name="Layer 1">
    <path d="M29.69,84.25c-6.74-.17-13.49-.01-20.23-.04-2.51,0-5.02-.03-7.53-.05-.15,0-.3,0-.45,0-.58-.05-1-.3-.98-.95,.02-.6,.44-.84,.98-.84,1.36-.01,2.72-.04,4.08,0,.59,.02,.89-.16,.99-.75,.06-.38,.23-.75,.35-1.12,.28-.88,.87-1.38,1.81-1.32,.51,.03,.74-.14,.91-.62,4.26-12.31,8.54-24.61,12.78-36.92,.44-1.27,.18-2.71,.82-3.96,.14-.27-.13-.43-.28-.61-.74-.9-.9-1.91-.43-2.97,.5-1.13,1.45-1.7,2.67-1.69,.63,0,.83-.17,.81-.81-.05-1.15-.04-2.3,0-3.45,.01-.48-.14-.76-.54-1.04-2.68-1.9-3.82-4.55-3.23-7.73,.6-3.27,2.68-5.34,5.95-6.1,1.17-.27,.56-1.12,.66-1.73,.12-.73-.49-.51-.86-.53-.69-.03-1.39,0-2.09-.02-.69-.02-1.05-.34-1.04-1.07,.02-1.63-.03-3.27,.02-4.9,.08-2.47,2.36-4.54,4.9-4.52,2.52,.01,4.77,2.04,4.86,4.46,.07,1.66,.01,3.33,.03,4.99,0,.68-.33,1.02-.98,1.04-.82,.03-1.63,.03-2.45,.01-.42,0-.57,.14-.59,.57-.07,1.41-.08,1.38,1.26,1.81,2.77,.89,4.6,2.73,5.28,5.57,.18,.76,.49,.91,1.2,.9,2.27-.04,2.27-.01,2.27-2.32,0-.57,0-1.15,0-1.72,0-.66,.37-1.03,1.01-1.03,3.08-.02,6.17-.01,9.25,0,.65,0,1.02,.36,1.02,1.01,0,3.08,0,6.17,0,9.25,0,.71-.4,1.06-1.08,1.06-3.02,.01-6.05,.01-9.07,0-.77,0-1.17-.39-1.15-1.19,.02-.91-.01-1.81,.01-2.72,.01-.43-.13-.62-.57-.57-.03,0-.06,0-.09,0-.79,0-1.66-.21-2.33,.07-.69,.28-.49,1.3-.79,1.96-.63,1.39-1.5,2.55-2.76,3.4-.43,.29-.61,.58-.6,1.1,.03,1.18,.03,2.36,0,3.54-.01,.49,.11,.7,.65,.69,1.26-.04,2.26,.48,2.8,1.64,.52,1.11,.35,2.19-.49,3.11-.25,.27-.16,.5-.1,.81,1.32,6.94,4.22,13.37,6.42,20.03,2.21,6.67,4.59,13.28,6.88,19.93,.27,.78,.45,1.4,1.53,1.32,.75-.06,1.18,.6,1.42,1.31,.62,1.83,.63,1.83,2.63,1.83,.85,0,1.69,0,2.54,0,.63,0,1.21,.12,1.21,.89,0,.76-.56,.91-1.2,.92-2.45,.02-4.9,.04-7.35,.05-6.92,.03-13.85-.14-20.77,.04Zm-3.71-31.58c-.07,0-.14,0-.21,0-1,3.13-2,6.25-2.99,9.38-1.73,5.43-3.47,10.86-5.19,16.29-.09,.29-.42,.59,.09,.92,1.21,.76,1.36,1.14,.97,2.46-.18,.6,.03,.65,.52,.64,1.09-.02,2.18,0,3.27,0q1.42,0,1.47-1.43c.03-1.02,.43-1.71,1.23-1.71,.88,0,.85-.45,.85-1.07-.01-8.2,0-16.39,0-24.59,0-.29,0-.59,0-.88Zm7.69-.22c-.1,.27-.12,.3-.12,.33,0,8.58,0,17.16-.03,25.74,0,.53,.19,.64,.68,.67,.84,.05,1.3,.55,1.38,1.39,.03,.27,.05,.55,.02,.81-.1,.73,.15,1.02,.93,.98,1.17-.06,2.36-.06,3.53,0,.76,.04,1.04-.11,.72-.92-.34-.85-.05-1.63,.72-2.01,.65-.32,.6-.63,.42-1.19-1.98-6.13-3.93-12.27-5.9-18.41-.77-2.4-1.54-4.79-2.37-7.39Zm-5.89,10.93c0,4.95,.01,9.91-.02,14.86,0,.72,.19,.97,.91,.9,.69-.06,1.39-.07,2.08,0,.82,.09,1-.21,1-1-.03-9.88-.02-19.76-.02-29.64,0-.15,0-.3,0-.45,.02-.41-.14-.53-.55-.42-.86,.24-1.77,.25-2.6,.05-.84-.2-.82,.15-.81,.74,.01,4.99,0,9.97,0,14.96Zm8.27-19.29c-.53,.91-1.08,1.6-1.8,2.11-.46,.33-.5,.61-.34,1.12,1.12,3.41,2.19,6.83,3.29,10.25,2.22,6.95,4.46,13.89,6.66,20.85,.18,.57,.43,.77,1.01,.74,.72-.05,1.45-.01,2.18-.01q1.19,0,.81-1.09c-2.34-6.75-4.68-13.5-7.03-20.25-1.57-4.53-3.15-9.05-4.77-13.71Zm-12.58,.06c-.12,.3-.2,.5-.27,.7-2.78,8-5.56,16.01-8.33,24.01-1.11,3.19-2.2,6.39-3.33,9.57-.21,.58-.1,.76,.51,.73,.72-.03,1.46-.07,2.17,0,.91,.11,1.31-.21,1.57-1.11,.95-3.18,1.99-6.32,3-9.48,2.26-7.06,4.52-14.12,6.76-21.19,.11-.33,.41-.69-.1-1.03-.82-.54-1.4-1.31-2-2.2Zm6.28-17.58c3.26,0,5.73-2.49,5.87-5.63,.14-3.34-2.79-6.1-5.77-6.04-3.39,.06-5.95,2.53-5.95,5.85,0,3.3,2.53,5.82,5.85,5.83Zm.05,11.52c-1.36,0-2.72,.02-4.08-.01-.55-.01-.81,.19-1,.68-.8,2.13-.03,4.71,1.88,6.14,1.87,1.4,4.46,1.4,6.31,0,1.9-1.43,2.67-4,1.87-6.14-.19-.5-.45-.7-1-.69-1.33,.04-2.66,.01-3.99,.01Zm16.47-13.78c1.06,0,2.12-.01,3.17,0,.47,0,.72-.1,.72-.65-.02-2.18-.02-4.35,0-6.53,0-.42-.14-.59-.58-.58-2.18,.02-4.35,.02-6.53,0-.49,0-.61,.18-.6,.63,.02,2.15,.03,4.29,0,6.44,0,.6,.23,.71,.75,.69,1.03-.03,2.05,0,3.08,0ZM29.78,9.18c.78,0,1.57-.02,2.35,0,.51,.02,.77-.09,.74-.69-.04-1.08,.01-2.17-.02-3.25-.06-1.64-1.42-2.92-3.08-2.93-1.69-.01-3.07,1.29-3.12,2.98-.03,1.05,.02,2.11-.02,3.16-.02,.54,.13,.76,.7,.73,.81-.04,1.63-.01,2.44-.01Zm-.02,27c1.51,0,3.02,0,4.53,0,.63,0,1.08-.19,1.12-.88,.05-.72-.39-1.1-1.04-1.11-3.08-.03-6.17-.03-9.25,0-.65,0-1.08,.39-1.03,1.11,.05,.69,.5,.89,1.13,.88,1.51-.01,3.02,0,4.53,0Zm1.98-5.84c0-.51-.02-1.03,0-1.54,.02-.39-.09-.54-.51-.47-.5,.09-1.02,.12-1.52,.17-.64,.07-1.47-.54-1.84-.01-.32,.44-.08,1.28-.09,1.94q0,1.92,1.93,1.92t2.02-2.01ZM12.46,82.35s0-.04,0-.06c1.24,0,2.48,0,3.71,0,.75,0,.65-.62,.71-1.03,.07-.54-.42-.28-.65-.28-1.39-.02-2.78,0-4.17,0-1,0-1.99,0-2.99-.02-.76-.02-.66,.6-.74,1.01-.11,.58,.41,.38,.68,.39,1.15,.02,2.29,0,3.44,0Zm34.32-1.42s0,.02,0,.03c-1.14,0-2.29-.02-3.43,.01-.25,0-.78-.29-.73,.27,.04,.43,.01,1.08,.8,1.07,2.47-.02,4.94-.02,7.41-.04,.17,0,.5,.1,.4-.27-.15-.56-.21-1.17-1.11-1.09-1.11,.09-2.23,.02-3.34,.02Zm-17.06,1.35c1.15,0,2.29-.02,3.44,.01,.55,.02,.64-.22,.65-.7,0-.52-.18-.66-.68-.66-2.23,.02-4.46,.03-6.69,0-.53,0-.74,.11-.74,.69,0,.62,.3,.67,.78,.66,1.09-.02,2.17,0,3.26,0Z" style="fill: #226281; stroke: #226281; stroke-miterlimit: 10;"/>
    <path d="M29.72,25.1c-2.29-.01-4.25-1.85-4.32-4.03-.02-.63,.16-1.13,.82-1.18,.66-.05,.91,.41,.99,1.04,.19,1.52,1.23,2.42,2.67,2.37,1.28-.05,2.34-1.08,2.42-2.36,.08-1.39-.86-2.53-2.34-2.73-.66-.09-1.17-.3-1.08-1.02,.1-.78,.74-.85,1.39-.77,2.32,.3,3.96,2.33,3.82,4.71-.13,2.22-2.07,3.98-4.38,3.97Z" style="fill: #a4883f; stroke: #a4883d; stroke-miterlimit: 10;"/>
    <path d="M45.41,22.75c-.44,.03-.73-.12-.89-.45-.15-.31-.18-.67,.08-.93,1.07-1.1,2.15-2.19,3.25-3.26,.31-.3,.74-.27,1.08,0,.33,.27,.52,.68,.24,1.04-1.03,1.3-2.24,2.42-3.48,3.52-.08,.07-.23,.06-.28,.07Z" style="fill: #a4883f; stroke: #a4883d; stroke-miterlimit: 10;"/>
  </g>
</svg>